<svg width="65" height="64" viewBox="0 0 65 64" fill="none" xmlns="http://www.w3.org/2000/svg">
<path d="M13.0267 38.4403L15.7973 32.5656C16.153 31.8115 17.1805 31.8115 17.5362 32.5656L20.3069 38.4403L26.503 39.3883C27.298 39.5099 27.6148 40.5325 27.0393 41.1195L22.5567 45.6891L23.6146 52.1448C23.7504 52.9739 22.9189 53.6059 22.2076 53.2144L16.6668 50.1648L11.126 53.2144C10.4146 53.6059 9.58313 52.9739 9.719 52.1448L10.7769 45.6891L6.29425 41.1195C5.71871 40.5325 6.03556 39.5099 6.83055 39.3883L13.0267 38.4403Z" stroke="#334155" stroke-width="2" stroke-linecap="round" stroke-linejoin="round"/>
<path d="M45.0265 38.4403L47.7974 32.5656C48.1529 31.8115 49.1806 31.8115 49.5361 32.5656L52.307 38.4403L58.503 39.3883C59.2979 39.5099 59.6147 40.5325 59.0393 41.1195L54.5566 45.6891L55.6145 52.1448C55.7505 52.9739 54.919 53.6059 54.2075 53.2144L48.6667 50.1648L43.1259 53.2144C42.4145 53.6059 41.583 52.9739 41.719 52.1448L42.7769 45.6891L38.2942 41.1195C37.7187 40.5325 38.0355 39.5099 38.8305 39.3883L45.0265 38.4403Z" stroke="#334155" stroke-width="2" stroke-linecap="round" stroke-linejoin="round"/>
<path d="M29.0265 14.4404L31.7975 8.56562C32.1529 7.81146 33.1807 7.81146 33.5361 8.56562L36.3071 14.4404L42.5031 15.3883C43.298 15.5099 43.6148 16.5326 43.0393 17.1194L38.5567 21.689L39.6145 28.1448C39.7505 28.9739 38.9191 29.6059 38.2076 29.2144L32.6668 26.1647L27.126 29.2144C26.4146 29.6059 25.5831 28.9739 25.719 28.1448L26.7769 21.689L22.2943 17.1194C21.7187 16.5326 22.0356 15.5099 22.8305 15.3883L29.0265 14.4404Z" stroke="#334155" stroke-width="2" stroke-linecap="round" stroke-linejoin="round"/>
</svg>
